<?xml version="1.0"?>
<svg xmlns:rdf="http://www.w3.org/1999/02/22-rdf-syntax-ns#" xmlns="http://www.w3.org/2000/svg" xmlns:cc="http://creativecommons.org/ns#" xmlns:xlink="http://www.w3.org/1999/xlink" xmlns:dc="http://purl.org/dc/elements/1.1/" xmlns:svg="http://www.w3.org/2000/svg" id="svg2" viewBox="0 0 189.71 149.83" version="1.1">
  <defs id="defs4">
    <linearGradient id="linearGradient3989">
      <stop id="stop3991" stop-color="#fff" offset="0"/>
      <stop id="stop3993" stop-color="#fff" stop-opacity="0" offset="1"/>
    </linearGradient>
    <linearGradient id="linearGradient3857" y2="60.647" gradientUnits="userSpaceOnUse" x2="-522.05" y1="-110.01" x1="-520.64">
      <stop id="stop3853" stop-color="#2b1100" offset="0"/>
      <stop id="stop3855" stop-color="#2b1100" stop-opacity="0" offset="1"/>
    </linearGradient>
    <linearGradient id="linearGradient3867" y2="337.29" gradientUnits="userSpaceOnUse" x2="308.88" y1="192.02" x1="307.47">
      <stop id="stop3863" stop-color="#2b1100" offset="0"/>
      <stop id="stop3865" stop-color="#2b1100" stop-opacity="0" offset="1"/>
    </linearGradient>
    <linearGradient id="linearGradient3877" y2="729.38" gradientUnits="userSpaceOnUse" x2="290.54" y1="894.4" x1="287.72">
      <stop id="stop3873" stop-color="#2b1100" offset="0"/>
      <stop id="stop3875" stop-color="#2b1100" stop-opacity="0" offset="1"/>
    </linearGradient>
    <linearGradient id="linearGradient3887" y2="585.32" gradientUnits="userSpaceOnUse" x2="-533.33" y1="727.77" x1="-533.33">
      <stop id="stop3883" stop-color="#2b1100" offset="0"/>
      <stop id="stop3885" stop-color="#2b1100" stop-opacity="0" offset="1"/>
    </linearGradient>
    <linearGradient id="linearGradient3995" y2="392.59" xlink:href="#linearGradient3989" gradientUnits="userSpaceOnUse" x2="219.48" y1="242.28" x1="219.48"/>
    <linearGradient id="linearGradient3999" y2="549.55" xlink:href="#linearGradient3989" gradientUnits="userSpaceOnUse" x2="119.72" y1="557.53" x1="-164.94"/>
    <filter id="filter4003" color-interpolation-filters="sRGB">
      <feGaussianBlur id="feGaussianBlur4005" stdDeviation="8.4001282"/>
    </filter>
  </defs>
  <g id="layer1" transform="translate(-59.543 -56.45)">
    <g id="g4007" transform="matrix(.28280 0 0 .28280 61.856 -21.224)">
      <rect id="rect4001" ry="31.924" height="489.51" filter="url(#filter4003)" width="630.51" y="294.83" x="11.981"/>
      <rect id="rect2998" fill-opacity=".98131" height="367.14" width="605.71" y="365.22" x="25.714"/>
      <rect id="rect3997" height="367.14" width="605.71" y="365.22" x="25.714" fill="url(#linearGradient3999)"/>
      <rect id="rect3987" height="367.14" width="605.71" y="365.22" x="25.714" fill="url(#linearGradient3995)"/>
      <path id="rect2985" d="m59.299 292.07c-20.577 0-37.156 13.051-37.156 29.249v50.01c2.3075-0.35063 4.7148-0.54118 7.1562-0.54118h607.12v-49.469c0-16.198-16.548-29.249-37.125-29.249h-540z" fill="#a40"/>
      <path id="path2990" fill="#a40" d="m599.27 783.33c20.577 0 37.156-12.58 37.156-28.194v-48.208c-2.3075 0.338-4.7148 0.52168-7.1562 0.52168h-607.12v47.686c0 15.614 16.548 28.194 37.125 28.194h540z"/>
      <rect id="rect2992" ry="0" transform="rotate(-90)" height="72.857" width="337.14" y="22.143" x="-707.65" fill="#a40"/>
      <rect id="rect2996" transform="rotate(-90)" ry="0" height="72.857" width="337.14" y="563.57" x="-707.65" fill="#a40"/>
      <g id="g3786" opacity=".05" transform="matrix(.40706 0 0 1.0966 91.464 -89.486)">
        <path id="path3768" d="m-132.86 627.36c0 105.33-38.695 190.71-86.429 190.71-47.72 0-86.411-85.342-86.429-190.64" fill="#2b1100" transform="matrix(.60328 0 0 1.1368 54.436 -292.72)"/>
        <path id="path3770" d="m-132.86 627.36c0 105.33-38.695 190.71-86.429 190.71-47.733 0-86.429-85.386-86.429-190.71 0-0.1695 0.0001-0.339 0.0003-0.50851" fill="#f60" transform="matrix(.50737 0 0 .95609 33.404 -178.84)"/>
        <path id="path3772" d="m-132.86 627.36c0 105.33-38.695 190.71-86.429 190.71-47.641 0-86.298-85.068-86.428-190.19" fill="#f95" transform="matrix(.40383 0 0 .76098 10.7 -56.926)"/>
        <path id="path3774" d="m-132.86 627.36c0 105.33-38.695 190.71-86.429 190.71-47.733 0-86.429-85.386-86.429-190.71 0-0.094 0.00003-0.18803 0.00009-0.28205" fill="#d45500" transform="matrix(.30909 0 0 .58246 -10.074 55.237)"/>
      </g>
      <g id="g3798" opacity=".05" transform="matrix(.33765 0 0 .39583 665.57 416.33)">
        <path id="path3792" d="m-88.76 505.84c0 87.026-17.637 157.57-39.394 157.57-21.756 0-39.394-70.548-39.394-157.57 0-87.026 17.637-157.57 39.394-157.57 21.756 0 39.394 70.548 39.394 157.57z" fill="#2b1100"/>
        <path id="path3794" d="m-88.76 505.84c0 87.026-17.637 157.57-39.394 157.57-21.756 0-39.394-70.548-39.394-157.57 0-87.026 17.637-157.57 39.394-157.57 21.756 0 39.394 70.548 39.394 157.57z" fill="#a40" transform="matrix(.63291 0 0 .76899 -47.044 116.86)"/>
        <path id="path3796" d="m-88.76 505.84c0 87.026-17.637 157.57-39.394 157.57-21.756 0-39.394-70.548-39.394-157.57 0-87.026 17.637-157.57 39.394-157.57 21.756 0 39.394 70.548 39.394 157.57z" fill="#f60" transform="matrix(.41772 0 0 .61392 -74.621 195.29)"/>
      </g>
      <g id="g3803" opacity=".05" transform="matrix(.33765 0 0 .39583 621.02 252.72)">
        <path id="path3805" d="m-88.76 505.84c0 87.026-17.637 157.57-39.394 157.57-21.756 0-39.394-70.548-39.394-157.57 0-87.026 17.637-157.57 39.394-157.57 21.756 0 39.394 70.548 39.394 157.57z" fill="#2b1100"/>
        <path id="path3807" d="m-88.76 505.84c0 87.026-17.637 157.57-39.394 157.57-21.756 0-39.394-70.548-39.394-157.57 0-87.026 17.637-157.57 39.394-157.57 21.756 0 39.394 70.548 39.394 157.57z" fill="#a40" transform="matrix(.63291 0 0 .76899 -47.044 116.86)"/>
        <path id="path3809" d="m-88.76 505.84c0 87.026-17.637 157.57-39.394 157.57-21.756 0-39.394-70.548-39.394-157.57 0-87.026 17.637-157.57 39.394-157.57 21.756 0 39.394 70.548 39.394 157.57z" fill="#f60" transform="matrix(.41772 0 0 .61392 -74.621 195.29)"/>
      </g>
      <g id="g3811" opacity=".05" transform="matrix(0 .27181 -.42005 0 810.84 764.12)">
        <path id="path3813" d="m-132.86 627.36c0 105.33-38.695 190.71-86.429 190.71-47.72 0-86.411-85.342-86.429-190.64" fill="#2b1100" transform="matrix(.60328 0 0 1.1368 54.436 -292.72)"/>
        <path id="path3815" d="m-132.86 627.36c0 105.33-38.695 190.71-86.429 190.71-47.733 0-86.429-85.386-86.429-190.71 0-0.1695 0.0001-0.339 0.0003-0.50851" fill="#f60" transform="matrix(.50737 0 0 .95609 33.404 -178.84)"/>
        <path id="path3817" d="m-132.86 627.36c0 105.33-38.695 190.71-86.429 190.71-47.641 0-86.298-85.068-86.428-190.19" fill="#f95" transform="matrix(.40383 0 0 .76098 10.7 -56.926)"/>
        <path id="path3819" d="m-132.86 627.36c0 105.33-38.695 190.71-86.429 190.71-47.733 0-86.429-85.386-86.429-190.71 0-0.094 0.00003-0.18803 0.00009-0.28205" fill="#d45500" transform="matrix(.30909 0 0 .58246 -10.074 55.237)"/>
      </g>
      <g id="g3831" opacity=".05" transform="matrix(3.8018 0 0 .23791 608.93 192.6)">
        <path id="path3833" d="m-132.86 627.36c0 105.33-38.695 190.71-86.429 190.71-47.72 0-86.411-85.342-86.429-190.64" fill="#2b1100" transform="matrix(.60328 0 0 1.1368 54.436 -292.72)"/>
        <path id="path3835" d="m-132.86 627.36c0 105.33-38.695 190.71-86.429 190.71-47.733 0-86.429-85.386-86.429-190.71 0-0.1695 0.0001-0.339 0.0003-0.50851" fill="#f60" transform="matrix(.50737 0 0 .95609 33.404 -178.84)"/>
        <path id="path3837" d="m-132.86 627.36c0 105.33-38.695 190.71-86.429 190.71-47.641 0-86.298-85.068-86.428-190.19" fill="#f95" transform="matrix(.40383 0 0 .76098 10.7 -56.926)"/>
        <path id="path3839" d="m-132.86 627.36c0 105.33-38.695 190.71-86.429 190.71-47.733 0-86.429-85.386-86.429-190.71 0-0.094 0.00003-0.18803 0.00009-0.28205" fill="#d45500" transform="matrix(.30909 0 0 .58246 -10.074 55.237)"/>
      </g>
      <g id="g3841" opacity=".05" transform="matrix(1.9846 0 0 .12283 375.93 684.89)">
        <path id="path3843" d="m-88.76 505.84c0 87.026-17.637 157.57-39.394 157.57-21.756 0-39.394-70.548-39.394-157.57 0-87.026 17.637-157.57 39.394-157.57 21.756 0 39.394 70.548 39.394 157.57z" fill="#2b1100"/>
        <path id="path3845" d="m-88.76 505.84c0 87.026-17.637 157.57-39.394 157.57-21.756 0-39.394-70.548-39.394-157.57 0-87.026 17.637-157.57 39.394-157.57 21.756 0 39.394 70.548 39.394 157.57z" fill="#a40" transform="matrix(.63291 0 0 .76899 -47.044 116.86)"/>
        <path id="path3847" d="m-88.76 505.84c0 87.026-17.637 157.57-39.394 157.57-21.756 0-39.394-70.548-39.394-157.57 0-87.026 17.637-157.57 39.394-157.57 21.756 0 39.394 70.548 39.394 157.57z" fill="#f60" transform="matrix(.41772 0 0 .61392 -74.621 195.29)"/>
      </g>
      <rect id="rect3849" transform="rotate(-90)" ry="0" height="72.857" width="337.14" y="22.143" x="-707.65" fill="url(#linearGradient3857)"/>
      <path id="path3859" fill="url(#linearGradient3867)" d="m59.299 292.07c-20.577 0-37.156 13.051-37.156 29.249v50.01c2.3075-0.35063 4.7148-0.54118 7.1562-0.54118h607.12v-49.469c0-16.198-16.548-29.249-37.125-29.249h-540z"/>
      <path id="path3869" d="m599.27 783.33c20.577 0 37.156-12.58 37.156-28.194v-48.208c-2.3075 0.338-4.7148 0.52168-7.1562 0.52168h-607.12v47.686c0 15.614 16.548 28.194 37.125 28.194h540z" fill="url(#linearGradient3877)"/>
      <rect id="rect3879" ry="0" transform="rotate(-90)" height="72.857" width="337.14" y="563.57" x="-707.65" fill="url(#linearGradient3887)"/>
      <g id="text3889" opacity=".70638" stroke-linejoin="round" stroke="#fff" stroke-linecap="round" fill="#fff">
        <path id="path3932" d="m235.16 437.62c-0.00005 0.61299-0.23842 1.1749-0.71511 1.6856-0.47679 0.51083-1.0046 0.76622-1.5834 0.76618-0.30653 0.00004-0.63003-0.051-0.9705-0.15323-0.34058-0.10212-0.613-0.19577-0.81727-0.28094-0.0171 0.00004-0.22139-0.0851-0.61295-0.25539-1.1068 19.257-3.7373 33.312-7.8917 42.166-1.0897 2.2986-2.3837 3.4478-3.882 3.4478-4.2226 0-7.3639-8.3174-9.4241-24.952-2.7072 8.0535-4.9377 13.715-6.6914 16.984-1.9751 3.7118-3.9246 5.5676-5.8486 5.5676-1.3281-0.00001-2.571-0.80025-3.7288-2.4007-1.1067-1.5324-2.3071-4.0438-3.6011-7.5342-2.571-6.9808-3.8565-17.461-3.8565-31.439v-1.8388c-0.34053 0.0341-0.79173 0.11071-1.3536 0.22985-0.47674 0.1022-0.81726 0.15328-1.0216 0.15324-1.7026 0.00004-2.554-0.87682-2.554-2.6306 0-2.0602 2.7242-3.0902 8.1726-3.0903 2.5369 0.00004 4.5716 0.31929 6.104 0.95773 1.5324 0.63853 2.2985 1.4345 2.2986 2.388-0.00002 1.8219-0.81728 2.7328-2.4518 2.7327-0.40864 0.00004-1.0301-0.11914-1.8644-0.35755-0.91943-0.27238-1.6601-0.43413-2.2219-0.48525l-0.10216 6.3849c0 12.685 2.1113 23.02 6.3338 31.005 2.622-3.6266 5.6017-10.897 8.9388-21.811 0.5959-1.941 1.1918-4.3332 1.7878-7.1766 0.49374-2.3496 0.88534-3.8479 1.1748-4.495 0.45968-1.0386 1.1322-1.5579 2.0176-1.5579 1.2429 0.00003 2.0516 0.58744 2.4263 1.7622 0.25536 0.83432 0.38306 2.571 0.38309 5.2101-0.00003 0.42568-0.009 0.93222-0.0255 1.5196-0.0171 0.58744-0.0256 0.94925-0.0255 1.0854-0.00003 10.352 1.6941 19.385 5.0824 27.097 3.5755-9.1261 5.84-22.27 6.7935-39.433-0.25544 0.0171-0.68961 0.0937-1.3025 0.22985-0.51083 0.11922-0.91095 0.17882-1.2004 0.17878-1.6686 0.00004-2.5029-0.86831-2.5029-2.605-0.00003-1.992 2.2815-2.9881 6.8446-2.9881 2.3155 0.00004 4.2395 0.40867 5.7719 1.2259 1.4131 0.76623 2.1197 1.6686 2.1198 2.7072z"/>
        <path id="path3934" d="m260.65 455.5c-0.00003 1.7708-0.61298 3.0818-1.8388 3.9331-0.54487 0.3746-2.273 0.85985-5.1845 1.4558-3.865 0.80026-7.1596 1.2004-9.8838 1.2004-1.2429 0.00002-2.7412-0.0851-4.495-0.25539-0.00001 6.419 2.4433 9.6284 7.3298 9.6284 1.3451 0.00001 2.5624-0.38309 3.6522-1.1493 0.54482-0.37457 1.5238-1.2855 2.937-2.7327 0.51077-0.52781 1.0471-0.79172 1.609-0.79173 0.71508 0.00001 1.3323 0.26818 1.8516 0.8045 0.51928 0.53634 0.77893 1.1961 0.77895 1.9793-0.00002 0.64701-0.2469 1.2429-0.74064 1.7878-2.9286 3.201-6.3594 4.8014-10.292 4.8014-8.1386 0-12.208-4.7078-12.208-14.123-0.00001-4.8525 1.294-9.041 3.882-12.565 2.9456-4.0012 6.5892-6.0018 10.931-6.0018 3.3882 0.00003 6.1806 1.1323 8.377 3.3968s3.2946 5.142 3.2946 8.6324zm-5.0824 0.30647c-0.10218-2.3666-0.71938-4.2395-1.8516-5.6187-1.1323-1.3791-2.5497-2.0687-4.2523-2.0687-2.2134 0.00002-4.163 0.79175-5.8486 2.3752-1.7367 1.6005-3.0307 3.865-3.882 6.7935 1.2089 0.13623 2.4944 0.20433 3.8565 0.20431 3.3031 0.00002 7.2958-0.56185 11.978-1.6856z"/>
        <path id="path3936" d="m271.91 477c-0.00001 1.1578-0.0766 1.9495-0.22986 2.3752-0.28946 0.74916-0.92794 1.1237-1.9155 1.1237-1.6175 0-2.571-1.311-2.8604-3.9331-0.49377-4.4268-0.74066-10.488-0.74065-18.184-0.00001-8.5983 0.11918-13.885 0.35755-15.86 0.27242-2.1623 1.1322-3.2435 2.5795-3.2435 1.7026 0.00004 2.5539 1.0301 2.554 3.0903-0.00001 0.51083-0.0937 2.5412-0.28093 6.0912-0.1873 3.55-0.28095 6.8233-0.28094 9.82-0.00001 2.6221 0.1362 6.0146 0.40864 10.178 0.27241 4.163 0.40862 7.0106 0.40863 8.543z"/>
        <path id="path3938" d="m306.01 466.89c-0.00003 1.7708-1.7963 4.0438-5.3888 6.8191-2.537 1.941-5.8656 2.9115-9.986 2.9115-4.0863 0-7.3043-1.3451-9.654-4.0352-2.4007-2.7412-3.6011-6.5041-3.6011-11.288 0-6.1806 1.3791-10.995 4.1374-14.443 2.7583-3.4478 6.5466-5.1717 11.365-5.1718 3.5755 0.00003 6.504 0.80027 8.7856 2.4007 2.1623 1.4984 3.2435 3.2946 3.2435 5.3888-0.00003 1.7197-0.80027 2.5795-2.4007 2.5795-0.74918 0.00002-1.294-0.26389-1.6345-0.79173-0.3065-0.74913-0.77472-1.6856-1.4047-2.8094-1.2089-1.3621-3.4053-2.0431-6.5892-2.0432-3.3202 0.00004-5.8869 1.2515-7.7002 3.7543-1.8133 2.5029-2.72 6.0784-2.72 10.727-0.00001 7.3554 2.9285 11.033 8.7856 11.033 3.3882 0.00001 6.2827-1.2004 8.6834-3.6011 0.017-0.017 0.54482-0.7832 1.5834-2.2986 0.61292-0.91941 1.311-1.3791 2.0942-1.3791 0.61292 0.00001 1.1663 0.23412 1.6601 0.70234 0.49374 0.46823 0.74062 0.98328 0.74065 1.5451z"/>
        <path id="path3940" d="m337.83 458.74c-0.00003 5.0058-1.4643 8.9942-4.3928 11.965-2.9286 2.9711-6.8361 4.4567-11.723 4.4567-4.0523 0-7.2277-1.3834-9.5262-4.1502-2.2986-2.7668-3.4478-6.6105-3.4478-11.531 0-5.176 1.3876-9.1942 4.163-12.055 2.7242-2.8093 6.5041-4.214 11.34-4.214 4.0523 0.00003 7.3298 1.4217 9.8327 4.2651 2.5028 2.8434 3.7543 6.5977 3.7543 11.263zm-5.0824 0.0511c-0.00002-3.4223-0.83006-6.0997-2.4901-8.0322-1.6601-1.9325-3.9289-2.8987-6.8063-2.8987-6.419 0.00003-9.6284 3.8565-9.6284 11.569-0.00001 3.5585 0.69808 6.2955 2.0942 8.211 1.3962 1.9155 3.3967 2.8732 6.0018 2.8732 3.3712 0 6.0188-1.0301 7.9428-3.0903s2.886-4.9376 2.886-8.6324z"/>
        <path id="path3942" d="m378.54 459.53c-0.00003 13.042-1.5494 19.563-4.6482 19.563-1.1919 0-1.7878-0.74916-1.7878-2.2475-0.00004-0.017 0.28941-1.9623 0.86834-5.8358 0.57886-3.8735 0.86831-7.7342 0.86835-11.582-0.00004-6.4189-1.5154-9.6284-4.546-9.6284-2.6562 0.00002-4.4014 1.6175-5.2356 4.8525-0.63 2.4859-0.94499 7.3724-0.94497 14.66-0.00002 1.1237 0.0851 2.3624 0.2554 3.716 0.17024 1.3536 0.25537 2.1496 0.25539 2.388-0.00002 1.6856-0.80026 2.5284-2.4007 2.5284-1.924 0-2.886-3.0733-2.886-9.2198-0.00002-2.588 0.0979-5.2909 0.2937-8.1088 0.19578-2.8178 0.29369-4.3289 0.29371-4.5333-0.00002-2.5199-1.3281-3.7798-3.9842-3.7799-2.4859 0.00003-4.2906 1.1152-5.4144 3.3457-1.0897 2.1624-1.6345 5.5847-1.6345 10.267-0.00001 3.0137 0.0851 5.8188 0.25539 8.4153 0.17026 2.5965 0.25539 3.6905 0.2554 3.2818-0.00001 0.647-0.23412 1.1833-0.70234 1.609-0.46823 0.42566-1.0684 0.63849-1.8005 0.63849-1.5154 0-2.4518-1.4472-2.8094-4.3417-0.11919-0.83429-0.17878-2.9966-0.17878-6.487 0-7.3043 0.59592-14.277 1.7878-20.917 0.3916-2.1794 0.78321-3.6266 1.1748-4.3417 0.45971-0.86831 1.2004-1.3025 2.2219-1.3025 1.6005 0.00004 2.4007 0.85136 2.4007 2.554-0.00001 0.00003-0.3831 1.924-1.1493 5.7719 1.4643-2.0602 3.5585-3.0903 6.2827-3.0903 2.1794 0.00003 3.8905 0.90243 5.1334 2.7072 2.1623-3.5585 5.21-5.3377 9.1432-5.3378 5.7549 0.00003 8.6323 4.8185 8.6324 14.455z"/>
        <path id="path3944" d="m410.01 455.5c-0.00002 1.7708-0.61297 3.0818-1.8388 3.9331-0.54487 0.3746-2.273 0.85985-5.1845 1.4558-3.865 0.80026-7.1596 1.2004-9.8838 1.2004-1.2429 0.00002-2.7413-0.0851-4.495-0.25539-0.00001 6.419 2.4433 9.6284 7.3298 9.6284 1.3451 0.00001 2.5624-0.38309 3.6522-1.1493 0.54483-0.37457 1.5238-1.2855 2.937-2.7327 0.51077-0.52781 1.0471-0.79172 1.609-0.79173 0.71508 0.00001 1.3323 0.26818 1.8516 0.8045 0.51928 0.53634 0.77894 1.1961 0.77896 1.9793-0.00002 0.64701-0.24691 1.2429-0.74065 1.7878-2.9286 3.201-6.3594 4.8014-10.292 4.8014-8.1386 0-12.208-4.7078-12.208-14.123 0-4.8525 1.294-9.041 3.882-12.565 2.9456-4.0012 6.5892-6.0018 10.931-6.0018 3.3882 0.00003 6.1806 1.1323 8.377 3.3968s3.2946 5.142 3.2946 8.6324zm-5.0824 0.30647c-0.10218-2.3666-0.71938-4.2395-1.8516-5.6187-1.1323-1.3791-2.5497-2.0687-4.2523-2.0687-2.2134 0.00002-4.163 0.79175-5.8486 2.3752-1.7367 1.6005-3.0307 3.865-3.882 6.7935 1.2089 0.13623 2.4944 0.20433 3.8565 0.20431 3.3031 0.00002 7.2958-0.56185 11.978-1.6856z"/>
        <path id="path3946" d="m216.95 532.75c-0.00004 4.4439-1.9496 8.1386-5.8486 11.084-3.235 2.4348-7.066 3.6522-11.493 3.6522-2.1964-0.00001-4.7078-0.40012-7.5342-1.2004-0.30649 1.6516-1.1493 2.4773-2.5284 2.4773-1.0386-0.00001-1.7622-0.43418-2.1709-1.3025-0.39161-0.81727-0.58742-2.1794-0.58741-4.0863-0.00001-3.9842 0.53632-12.897 1.609-26.74l0.20432-2.886c0.25539-3.1158 0.53632-5.1249 0.8428-6.0273 0.44268-1.2769 1.277-1.9154 2.5029-1.9155 1.5494 0.00004 2.3241 1.0301 2.3241 3.0903-0.00001-0.59589-0.29797 2.4603-0.89389 9.1687-0.64701 7.1852-1.0642 14.856-1.2514 23.011 2.9285 0.9024 5.5421 1.3536 7.8406 1.3536 3.4223 0 6.2231-0.94497 8.4025-2.8349 2.0942-1.8388 3.1413-4.1204 3.1414-6.8446-0.00003-5.3292-3.6777-7.9939-11.033-7.9939-0.25541 0.00002-0.64276 0.009-1.162 0.0255-0.51932 0.0171-0.91518 0.0256-1.1876 0.0255-1.5664 0.00002-2.3496-0.71509-2.3496-2.1453-0.00001-1.0386 0.43416-1.7367 1.3025-2.0942 0.51078-0.22132 1.2599-0.37456 2.2475-0.45972 1.1918-0.11916 2.0176-0.22983 2.4773-0.33201 1.4472-0.35753 2.6178-1.1876 3.5117-2.4901 0.89386-1.3025 1.3408-2.8646 1.3408-4.6865-0.00002-2.5199-1.0301-4.4736-3.0903-5.8613-2.0602-1.3876-5.0058-2.0814-8.8367-2.0815-2.6221 0.00004-5.4484 0.63002-8.4791 1.8899-0.73214 0.34056-1.4728 0.68109-2.2219 1.0216-0.86835 0.35759-1.626 0.53637-2.273 0.53633-0.66403 0.00004-1.2131-0.21279-1.6473-0.63849-0.43416-0.42562-0.65125-0.9279-0.65125-1.5068 0-0.93641 0.83429-1.8899 2.5029-2.8604 3.882-2.2645 8.5217-3.3967 13.919-3.3968 5.0057 0.00004 8.9729 1.1323 11.901 3.3968 2.8774 2.2475 4.3162 5.2442 4.3162 8.9899-0.00003 3.4734-1.294 6.4019-3.882 8.7856 2.7412 0.85134 4.8823 2.3326 6.4232 4.4439 1.5408 2.1113 2.3113 4.5886 2.3113 7.432z"/>
        <path id="path3948" d="m244.49 527.21c-0.00003 4.6652-0.68108 9.5433-2.0432 14.634-0.68108 2.554-1.6941 3.8309-3.0392 3.8309-1.3792 0-2.0687-0.78321-2.0687-2.3496-0.00002-0.35755 0.017-0.62146 0.0511-0.79172-1.7367 0.93645-3.533 1.4047-5.3888 1.4047-3.2861 0-5.8528-0.92794-7.7002-2.7838s-2.771-4.4524-2.771-7.7896c0-3.3882 0.99604-6.0741 2.9881-8.0577s4.6397-2.9753 7.9428-2.9754c2.8774 0.00002 5.3037 0.96201 7.2788 2.886-0.32352-6.7254-2.8179-10.088-7.4831-10.088-1.0386 0.00003-2.1496 0.31076-3.3329 0.9322-1.1834 0.62148-1.9538 0.93221-2.3113 0.93219-0.57891 0.00002-1.0982-0.23834-1.5579-0.71511-0.45971-0.47671-0.68957-1.0216-0.68957-1.6345 0-1.0216 0.74065-1.9665 2.222-2.8349 1.5834-0.93642 3.4734-1.4046 5.6698-1.4047 8.1556 0.00004 12.233 5.6017 12.233 16.805zm-5.1845 6.0018c-0.00002-4.3247-2.0347-6.487-6.104-6.487-4.4609 0.00002-6.6914 2.1453-6.6914 6.436-0.00001 4.3247 2.2134 6.487 6.6403 6.487 1.924 0 3.4308-0.56613 4.5205-1.6984 1.0897-1.1322 1.6345-2.7114 1.6345-4.7376z"/>
        <path id="path3950" d="m278.32 532.27c-0.00003 1.7708-1.7963 4.0438-5.3888 6.8191-2.537 1.941-5.8656 2.9115-9.986 2.9115-4.0863 0.00001-7.3043-1.3451-9.654-4.0352-2.4007-2.7412-3.6011-6.5041-3.6011-11.288-0.00001-6.1806 1.3791-10.995 4.1374-14.443 2.7583-3.4478 6.5466-5.1717 11.365-5.1718 3.5755 0.00004 6.504 0.80028 8.7856 2.4007 2.1623 1.4984 3.2435 3.2946 3.2435 5.3888-0.00003 1.7197-0.80027 2.5795-2.4007 2.5795-0.74919 0.00003-1.294-0.26388-1.6345-0.79172-0.3065-0.74914-0.77473-1.6856-1.4047-2.8094-1.2089-1.3621-3.4053-2.0431-6.5892-2.0432-3.3202 0.00003-5.8869 1.2515-7.7002 3.7543-1.8133 2.5029-2.72 6.0784-2.72 10.727-0.00001 7.3554 2.9285 11.033 8.7856 11.033 3.3882 0 6.2827-1.2004 8.6834-3.6011 0.017-0.017 0.54482-0.7832 1.5835-2.2986 0.61292-0.91941 1.311-1.3791 2.0942-1.3791 0.61292 0.00002 1.1663 0.23413 1.6601 0.70234 0.49374 0.46824 0.74062 0.98328 0.74065 1.5451z"/>
        <path id="path3952" d="m308.31 511.61c-0.00003 1.0557-1.1067 2.1624-3.3201 3.3201-3.235 1.5324-6.47 3.0648-9.705 4.5971 4.0182 4.0863 7.1425 7.7215 9.373 10.905 1.9921 2.8604 2.9881 4.9376 2.9881 6.2316-0.00002 0.73214-0.24265 1.3621-0.72787 1.8899-0.48528 0.52783-1.0429 0.79173-1.6728 0.79173-0.68108 0-1.277-0.40011-1.7878-1.2004-1.243-2.0091-3.0563-4.8184-5.4399-8.428-1.7026-2.3837-3.9501-4.844-6.7424-7.3809-0.98754-0.88535-1.4983-1.3451-1.5324-1.3791-0.5108-0.62995-0.7662-1.3706-0.76619-2.2219-0.00001-0.78319 0.53632-1.4557 1.609-2.0176 1.4983-0.664 2.9966-1.3365 4.495-2.0176 1.4472-0.69805 3.7628-1.958 6.9468-3.7799 1.924-1.1067 3.2009-1.66 3.8309-1.6601 1.6345 0.00004 2.4518 0.78325 2.4518 2.3496zm-17.878-5.159c-0.00001-0.034-0.1873 0.51083-0.56187 1.6345-0.42567 1.3111-0.76619 2.7498-1.0216 4.3162-0.37459 2.2816-0.56188 4.793-0.56187 7.5342-0.00001 1.5494 0.10641 3.8905 0.31925 7.0234 0.21282 3.1329 0.31923 5.4995 0.31924 7.1-0.00001 2.2645-0.20433 3.8735-0.61295 4.827-0.44269 1.0386-1.2344 1.5579-2.3752 1.5579-0.93645 0-1.5494-0.34904-1.8388-1.0471-0.17026-0.40863-0.2554-1.1578-0.25539-2.2475-0.00001-0.85131 0.009-1.9155 0.0255-3.1924 0.017-1.277 0.0255-2.1283 0.0255-2.554-0.00001-1.7537-0.0766-4.0693-0.22986-6.9468-0.15324-2.8774-0.22986-4.8866-0.22985-6.0273-0.00001-4.529 0.40862-8.079 1.2259-10.65 0.80024-2.4518 1.8729-3.6777 3.218-3.6777 0.66402 0.00004 1.2557 0.23841 1.775 0.71511 0.51929 0.47678 0.77894 1.0216 0.77895 1.6345z"/>
        <path id="path3954" d="m349.32 518.89c-0.00003 0.59594-0.18732 1.1025-0.56187 1.5196-0.37461 0.41717-0.81729 0.62574-1.3281 0.62572-0.25542 0.00002-1.2302-0.33199-2.9243-0.99604-1.6941-0.66401-3.35-0.99602-4.9674-0.99605-0.51081 0.00003-1.0471 0.0341-1.609 0.10216-0.62999 2.7753-0.94498 5.3208-0.94497 7.6363-0.00001 2.9796 0.50227 5.2697 1.5068 6.8701 1.0045 1.6005 2.4007 2.4007 4.1885 2.4007 0.54483 0 1.2642-0.17452 2.1581-0.52356 0.89386-0.34904 1.5366-0.52356 1.9282-0.52356 1.3621 0 2.0431 0.80024 2.0432 2.4007-0.00003 1.0386-0.5619 1.8814-1.6856 2.5284-1.1238 0.64701-2.6561 0.97051-4.5971 0.9705-7.2192 0.00001-10.829-4.8099-10.829-14.43 0-2.0261 0.24688-4.2566 0.74065-6.6914-0.47674 0.0681-1.5068 0.26393-3.0903 0.58741-1.0386 0.20434-1.8048 0.3065-2.2986 0.30648-1.8218 0.00002-2.7327-0.69806-2.7327-2.0942 0-1.9069 3.1414-3.1498 9.4241-3.7288 1.294-4.1033 2.8774-6.155 4.7504-6.155 0.57888 0.00004 1.0726 0.20861 1.4813 0.62572 0.40862 0.41718 0.61293 0.92372 0.61295 1.5196-0.00002 0.44271-0.12771 1.0003-0.38309 1.6728-0.25541 0.67257-0.51081 1.3494-0.76619 2.0304 6.5892 0.22137 9.8838 1.6686 9.8838 4.3417z"/>
        <path id="path3956" d="m380.33 524.12c-0.00003 5.0058-1.4643 8.9942-4.3928 11.965-2.9286 2.9711-6.8361 4.4566-11.723 4.4566-4.0523 0-7.2277-1.3834-9.5262-4.1502-2.2986-2.7668-3.4478-6.6105-3.4478-11.531-0.00001-5.176 1.3876-9.1942 4.1629-12.055 2.7242-2.8093 6.5041-4.214 11.34-4.214 4.0522 0.00004 7.3298 1.4217 9.8327 4.2651 2.5028 2.8434 3.7543 6.5977 3.7543 11.263zm-5.0824 0.0511c-0.00003-3.4223-0.83006-6.0997-2.4901-8.0322-1.6601-1.9325-3.9288-2.8987-6.8063-2.8987-6.419 0.00003-9.6284 3.8565-9.6284 11.569-0.00001 3.5585 0.69807 6.2955 2.0942 8.211 1.3962 1.9155 3.3968 2.8732 6.0018 2.8732 3.3712 0.00001 6.0188-1.0301 7.9428-3.0903s2.8859-4.9376 2.886-8.6324z"/>
        <path id="path3958" d="m214.65 570.53c-0.00003 0.4938-0.0937 1.294-0.28093 2.4007-0.18732 1.1068-0.28097 1.941-0.28094 2.5029v0.79173c-0.00003 1.8559-0.11921 3.0903-0.35755 3.7032-0.34056 0.86837-1.0642 1.3025-2.1709 1.3025-1.2259 0.00003-2.0517-0.79169-2.4773-2.3752-0.22137-0.76615-0.34906-2.0602-0.38309-3.882-2.3326-1.6515-4.7759-2.4773-7.3298-2.4773-3.2691 0.00003-5.9592 1.0557-8.0705 3.1669-2.1113 2.1113-3.1669 4.81-3.1669 8.096-0.00001 2.8094 0.67253 4.844 2.0176 6.104 0.93644 0.86837 2.9796 1.8474 6.1295 2.937 2.8434 0.97052 4.7844 1.7026 5.823 2.1964 1.7707 0.83431 3.1243 1.8133 4.0608 2.937 1.3961 1.6686 2.0942 3.882 2.0942 6.6403-0.00003 2.8604-1.0812 5.1249-3.2435 6.7935-2.1624 1.6686-5.125 2.5029-8.8878 2.5029-2.8264-0.00001-5.0909-0.69809-6.7935-2.0942l-0.0511 5.1845c-0.017 1.7197-0.85133 2.5795-2.5029 2.5795-1.7197-0.00001-2.5795-1.1408-2.5795-3.4223v-3.7032c0-4.9206 0.14472-8.1556 0.43417-9.705 0.3916-2.0772 1.2429-3.1158 2.554-3.1158 1.0386 0.00001 1.7367 0.41716 2.0942 1.2514 0.20431 0.5108 0.38309 1.2344 0.53633 2.1709 0.17026 1.2429 0.30647 2.0602 0.40863 2.4518 0.54484 2.2305 2.2645 3.3457 5.159 3.3457 5.0228 0 7.5342-1.4983 7.5342-4.495-0.00002-1.4813-0.53635-2.6816-1.609-3.6011-0.88539-0.76618-2.4518-1.5579-4.6993-2.3752l-4.6227-1.6601c-3.3882-1.2429-5.7634-2.7583-7.1255-4.546-1.4132-1.8558-2.1198-4.4949-2.1198-7.9173 0-4.9717 1.5579-9.0112 4.6737-12.119 3.1158-3.1073 7.134-4.6609 12.055-4.661 2.8264 0.00004 5.4995 0.78326 8.0194 2.3496 0.45969-1.7877 1.3621-2.6816 2.7072-2.6816 1.6345 0.00004 2.4518 1.1408 2.4518 3.4223z"/>
        <path id="path3960" d="m257.13 604.14c-0.00004 1.6516-1.1664 3.4138-3.4989 5.2867-3.8991 3.1499-8.8878 4.7248-14.966 4.7248-6.5382 0-11.599-1.9666-15.183-5.8996-3.584-3.9331-5.3761-9.4837-5.3761-16.652 0-6.8956 1.8133-12.514 5.4399-16.856 3.916-4.6652 9.1346-6.9978 15.656-6.9978 5.5506 0.00004 10.097 1.4473 13.638 4.3417 1.328 1.0727 1.992 2.0687 1.9921 2.9881-0.00004 0.68109-0.26395 1.2855-0.79173 1.8133-0.52785 0.52785-1.1323 0.79176-1.8133 0.79173-0.44272 0.00003-1.0727-0.29794-1.8899-0.89389-3.6777-2.639-7.4235-3.9586-11.237-3.9586-4.7504 0.00003-8.5387 1.6771-11.365 5.0313-2.8264 3.3542-4.2396 7.9173-4.2396 13.689-0.00001 11.612 5.0568 17.418 15.17 17.418 5.7719 0 9.8923-1.3962 12.361-4.1885 0.56184-0.73213 1.1237-1.4728 1.6856-2.2219 0.54481-0.64699 1.1663-0.97049 1.8644-0.9705 0.7321 0.00001 1.3408 0.24263 1.8261 0.72788 0.48521 0.48525 0.72784 1.094 0.72788 1.8261z"/>
        <path id="path3962" d="m300.01 569.84c-0.00004-0.5448-0.1022 1.6899-0.30647 6.7041-0.20436 5.0143-0.30652 10.297-0.30648 15.847-0.00004 4.1715 0.0255 8.096 0.0766 11.774 0.051 3.6777 0.0766 5.2782 0.0766 4.8014-0.00004 2.5369-0.91095 3.8054-2.7327 3.8054-1.0386-0.00001-1.7538-0.35756-2.1453-1.0727-0.27245-0.49376-0.44272-1.3323-0.51079-2.5156-0.0681-1.1833-0.10219-3.1541-0.10216-5.9124v-11.314c-2.0602 0.0341-4.9036 0.0511-8.5302 0.0511-6.7084 0.00001-11.918-0.0851-15.63-0.2554-0.1873 4.0182-0.28094 7.8406-0.28093 11.467-0.00001 1.0897 0.008 2.2603 0.0255 3.5117 0.017 1.2514 0.0255 1.9453 0.0255 2.0815-0.00001 1.7367-0.1873 2.9541-0.56187 3.6522-0.40865 0.76618-1.1408 1.1493-2.1964 1.1493-1.0216 0-1.7367-0.36607-2.1453-1.0982-0.39161-0.68106-0.58741-1.8303-0.58741-3.4478 0-3.3201 0.11067-9.2453 0.33202-17.776-1.1578-0.56185-1.7367-1.277-1.7367-2.1453-0.00001-1.1918 0.62997-1.941 1.8899-2.2475 0.27242-4.7674 0.65551-10.19 1.1493-16.269 0.34052-2.1623 1.3536-3.2435 3.0392-3.2435 1.6686 0.00004 2.5029 1.0216 2.5029 3.0648-0.00001 0.1703-0.12771 1.7878-0.3831 4.8525-0.32351 3.8139-0.59593 7.6619-0.81726 11.544 1.9069 0.0681 4.9036 0.10218 8.9899 0.10215 5.193 0.00003 10.182-0.1447 14.966-0.43417 0.13618-8.9218 0.28942-14.413 0.45971-16.473 0.20429-2.4347 1.1492-3.6521 2.8349-3.6522 1.7366 0.00004 2.605 1.1493 2.605 3.4478z"/>
        <path id="path3964" d="m348.89 591.7c-0.00005 7.2022-1.9538 12.821-5.8613 16.856-3.9076 4.0352-9.2752 6.0529-16.103 6.0529-6.0444 0-10.982-2.0772-14.813-6.2316-3.7628-4.0693-5.6442-9.5262-5.6442-16.371 0-7.2192 1.6516-13.059 4.9547-17.52 3.5926-4.8014 8.7941-7.2021 15.605-7.2022 6.8446 0.00004 12.199 2.1368 16.064 6.4104 3.8649 4.2736 5.7974 10.275 5.7975 18.005zm-5.3888 0.15324c-0.00004-6.2827-1.4175-11.088-4.2523-14.417-2.8349-3.3286-6.8744-4.993-12.119-4.993-4.9717 0.00003-8.7516 1.626-11.34 4.878-2.588 3.2521-3.882 7.9939-3.882 14.226-0.00001 5.4655 1.4387 9.837 4.3162 13.115 2.8774 3.2776 6.6147 4.9164 11.212 4.9164 4.9036 0 8.7941-1.5494 11.672-4.6482 2.9285-3.1839 4.3928-7.5427 4.3928-13.076z"/>
        <path id="path3966" d="m395.58 591.7c-0.00005 7.2022-1.9538 12.821-5.8613 16.856-3.9076 4.0352-9.2752 6.0529-16.103 6.0529-6.0444 0-10.982-2.0772-14.813-6.2316-3.7628-4.0693-5.6442-9.5262-5.6442-16.371 0-7.2192 1.6516-13.059 4.9547-17.52 3.5926-4.8014 8.7941-7.2021 15.605-7.2022 6.8446 0.00004 12.199 2.1368 16.064 6.4104 3.8649 4.2736 5.7974 10.275 5.7975 18.005zm-5.3888 0.15324c-0.00004-6.2827-1.4175-11.088-4.2523-14.417-2.8349-3.3286-6.8744-4.993-12.119-4.993-4.9717 0.00003-8.7516 1.626-11.34 4.878-2.588 3.2521-3.882 7.9939-3.882 14.226-0.00001 5.4655 1.4387 9.837 4.3162 13.115 2.8774 3.2776 6.6147 4.9164 11.212 4.9164 4.9036 0 8.7941-1.5494 11.672-4.6482 2.9285-3.1839 4.3928-7.5427 4.3928-13.076z"/>
        <path id="path3968" d="m435.47 600.74c-0.00004 4.6993-1.4303 8.1897-4.2906 10.471v0.10216c-2.588 1.6005-6.4956 2.4007-11.723 2.4007-7.6959-0.00001-13.766-0.46823-18.21-1.4047-1.3451-0.28945-2.273-0.62146-2.7838-0.99604-0.5789-0.44269-0.86835-1.0897-0.86835-1.941 0-1.328 0.9024-1.9921 2.7072-1.9921 0.86834 0 1.9836 0.1277 3.3457 0.38309-0.5108-5.6017-0.76619-10.361-0.76619-14.277 0-6.504 0.43417-13.34 1.3025-20.508l-1.2514 0.10216h-0.20432c-1.5834 0.00003-2.3752-0.76616-2.3752-2.2986 0-1.1407 0.49377-1.941 1.4813-2.4007 0.90239-0.42562 2.4007-0.63845 4.495-0.63849 3.3712 0.00004 6.0188 0.41718 7.9428 1.2514 1.7878 0.78325 2.6816 1.7963 2.6817 3.0392-0.00002 0.68109-0.24265 1.277-0.72788 1.7878-0.48527 0.51083-1.0344 0.76622-1.6473 0.76619-0.40865 0.00003-1.1323-0.24685-2.1709-0.74065-1.1238-0.52778-2.0858-0.83426-2.886-0.91942-1.0556 6.9638-1.5835 13.8-1.5835 20.508-0.00001 2.9796 0.33201 7.9598 0.99605 14.941 3.9842 0.42566 7.1596 0.63849 9.5262 0.63849 4.2395 0 7.6022-0.74916 10.088-2.2475 0.71507-0.9024 1.2599-2.6646 1.6345-5.2867 0.23833-1.7196 0.46819-2.8008 0.68956-3.2435 0.35753-0.73213 1.0301-1.0982 2.0176-1.0982 1.7196 0.00001 2.5795 1.2004 2.5795 3.6011z"/>
      </g>
      <g id="g3909" fill="#4d4d4d">
        <path id="path3905" d="m-208.74 510.77c0 5.4526-3.473 9.8728-7.7572 9.8728s-7.7572-4.4202-7.7572-9.8728 3.473-9.8728 7.7572-9.8728 7.7572 4.4202 7.7572 9.8728z" transform="matrix(.18182 0 0 .16229 123.39 630.54)"/>
        <path id="path3907" d="m-208.74 510.77c0 5.4526-3.473 9.8728-7.7572 9.8728s-7.7572-4.4202-7.7572-9.8728 3.473-9.8728 7.7572-9.8728 7.7572 4.4202 7.7572 9.8728z" transform="matrix(.18182 0 0 .16229 73.984 629.52)"/>
      </g>
      <g id="g3913" fill="#4d4d4d" transform="translate(538.95 -12.228)">
        <path id="path3915" d="m-208.74 510.77c0 5.4526-3.473 9.8728-7.7572 9.8728s-7.7572-4.4202-7.7572-9.8728 3.473-9.8728 7.7572-9.8728 7.7572 4.4202 7.7572 9.8728z" transform="matrix(.18182 0 0 .16229 123.39 630.54)"/>
        <path id="path3917" d="m-208.74 510.77c0 5.4526-3.473 9.8728-7.7572 9.8728s-7.7572-4.4202-7.7572-9.8728 3.473-9.8728 7.7572-9.8728 7.7572 4.4202 7.7572 9.8728z" transform="matrix(.18182 0 0 .16229 73.984 629.52)"/>
      </g>
      <g id="g3919" fill="#4d4d4d" transform="translate(538.95 -347.07)">
        <path id="path3921" d="m-208.74 510.77c0 5.4526-3.473 9.8728-7.7572 9.8728s-7.7572-4.4202-7.7572-9.8728 3.473-9.8728 7.7572-9.8728 7.7572 4.4202 7.7572 9.8728z" transform="matrix(.18182 0 0 .16229 123.39 630.54)"/>
        <path id="path3923" d="m-208.74 510.77c0 5.4526-3.473 9.8728-7.7572 9.8728s-7.7572-4.4202-7.7572-9.8728 3.473-9.8728 7.7572-9.8728 7.7572 4.4202 7.7572 9.8728z" transform="matrix(.18182 0 0 .16229 73.984 629.52)"/>
      </g>
      <g id="g3925" fill="#4d4d4d" transform="translate(-1.8812 -333.9)">
        <path id="path3927" d="m-208.74 510.77c0 5.4526-3.473 9.8728-7.7572 9.8728s-7.7572-4.4202-7.7572-9.8728 3.473-9.8728 7.7572-9.8728 7.7572 4.4202 7.7572 9.8728z" transform="matrix(.18182 0 0 .16229 123.39 630.54)"/>
        <path id="path3929" d="m-208.74 510.77c0 5.4526-3.473 9.8728-7.7572 9.8728s-7.7572-4.4202-7.7572-9.8728 3.473-9.8728 7.7572-9.8728 7.7572 4.4202 7.7572 9.8728z" transform="matrix(.18182 0 0 .16229 73.984 629.52)"/>
      </g>
      <path id="rect3982" d="m547.75 586.97c-2.91 0-5.2355 2.9462-5.2355 6.5938v106.31h10.496v-106.31c0-3.6476-2.3504-6.5938-5.2604-6.5938z" fill="#fff"/>
    </g>
  </g>
  <metadata>
    <rdf:RDF>
      <cc:Work>
        <dc:format>image/svg+xml</dc:format>
        <dc:type rdf:resource="http://purl.org/dc/dcmitype/StillImage"/>
        <cc:license rdf:resource="http://creativecommons.org/licenses/publicdomain/"/>
        <dc:publisher>
          <cc:Agent rdf:about="http://openclipart.org/">
            <dc:title>Openclipart</dc:title>
          </cc:Agent>
        </dc:publisher>
        <dc:title>chalk slate</dc:title>
        <dc:date>2011-08-27T17:28:56</dc:date>
        <dc:description>Welcome Back to School on Chalk Slate</dc:description>
        <dc:source>http://openclipart.org/detail/158365/chalk-slate-by-gsagri04</dc:source>
        <dc:creator>
          <cc:Agent>
            <dc:title>gsagri04</dc:title>
          </cc:Agent>
        </dc:creator>
        <dc:subject>
          <rdf:Bag>
            <rdf:li>Black</rdf:li>
            <rdf:li>Chalk</rdf:li>
            <rdf:li>Clip-art</rdf:li>
            <rdf:li>Domain</rdf:li>
            <rdf:li>Inkscape</rdf:li>
            <rdf:li>Learning</rdf:li>
            <rdf:li>Png</rdf:li>
            <rdf:li>School</rdf:li>
            <rdf:li>Slate</rdf:li>
            <rdf:li>Svg</rdf:li>
            <rdf:li>board</rdf:li>
            <rdf:li>clip art</rdf:li>
            <rdf:li>clipart</rdf:li>
            <rdf:li>education</rdf:li>
            <rdf:li>nursery</rdf:li>
            <rdf:li>old</rdf:li>
            <rdf:li>public</rdf:li>
            <rdf:li>student</rdf:li>
            <rdf:li>teaching</rdf:li>
          </rdf:Bag>
        </dc:subject>
      </cc:Work>
      <cc:License rdf:about="http://creativecommons.org/licenses/publicdomain/">
        <cc:permits rdf:resource="http://creativecommons.org/ns#Reproduction"/>
        <cc:permits rdf:resource="http://creativecommons.org/ns#Distribution"/>
        <cc:permits rdf:resource="http://creativecommons.org/ns#DerivativeWorks"/>
      </cc:License>
    </rdf:RDF>
  </metadata>
</svg>
